<?xml version="1.0" encoding="utf-8"?>
<!-- Generator: Adobe Illustrator 28.3.0, SVG Export Plug-In . SVG Version: 6.00 Build 0)  -->
<svg version="1.1" id="logo" xmlns="http://www.w3.org/2000/svg" x="0px"
     y="0px"
     viewBox="0 0 100 100" style="enable-background:new 0 0 100 100;" xml:space="preserve">
<style type="text/css">
	.st0{fill-rule:evenodd;clip-rule:evenodd;fill:#E73F12;}
	.st1{fill:#FFFFFF;}
</style>
    <polyline id="polygon2231_00000065756653866891016210000016351765767483502232_" class="st0"
              points="100,100 0,100 0,0 100,0 "/>
    <g>
	<path class="st1" d="M41,51.2c-1.4,0-2.7-0.1-4.1-0.1c0-0.8,0-1.6-0.1-2.4c-0.1-3.2-0.2-6.4-0.4-9.5c0-0.8,0-1.5-0.1-2.3
		c-0.2-1.1-1.1-1.4-2.3-0.9c-1.1,0.4-1.4,1.2-1.4,2.2c-0.1,3.8,0,7.6,0.5,11.4c0.1,0.4,0.1,0.8,0.1,1.4c-1.4,0-2.7,0-4.1-0.1
		c-0.1,0-0.3-0.4-0.4-0.7c-0.2-1.8-0.4-3.7-0.4-5.5c-0.1-3.5-0.1-7,0-10.4c0-1.3,0.2-2.5,0.4-3.8c0.1-1,0.8-1.4,1.6-1.8
		c0.5-0.2,1.1-0.2,1.8-0.4c0.1,0.4,0.2,0.7,0.3,1.1c0.2-0.3,0.5-0.6,0.7-0.9c1.1-1.7,2.6-2.5,4.6-2.7c1.2-0.1,2.4,0.7,2.7,1.9
		c0.2,0.8,0.4,1.7,0.5,2.6c0.1,1.1,0.1,2.1,0.1,3.2c0,2.8-0.1,5.6,0,8.3c0,2.9,0.1,5.9,0.2,8.8C41,50.9,41,51,41,51.2z"/>
        <path class="st1" d="M53.5,28.5c-0.5-0.2-1-0.5-1.7-0.6c-1-0.1-2.1-0.1-3.2,0c-0.6,0-1,0.5-1,1.2c0,1.6,0,3.1-0.1,4.7
		c0,0.7,0.2,0.9,0.9,0.9c1.1,0,2.1,0.1,3.3,0.1c0,1.1-0.1,2.2-0.1,3.4c-1,0-2,0.1-3.1,0.1c-1.1,0-1.1,0-1.1,1.1
		c-0.1,5.1-0.3,10.1-0.4,15.4c-1.4,0-2.9-0.1-4.3-0.1c-0.1,0-0.3-0.2-0.3-0.3c-0.1-0.1,0-0.3,0-0.4c0.1-7.9,0.3-15.7,0.5-23.6
		c0-1.7,0.2-3.3,0.3-5c0-0.2,0.2-0.6,0.4-0.6c2.4-0.7,4.8-1.1,7.3-0.9c1.8,0.1,3.6,0.6,5.2,1.4C55.3,26.3,54.4,27.4,53.5,28.5z"/>
        <path class="st1" d="M27.5,50.9c-1.4,0-2.7-0.1-4-0.1c-0.2,0-0.5-0.3-0.5-0.4c-0.3-1.4-0.6-2.8-0.7-4.2c-0.2-2.5-0.2-5-0.3-7.4
		c0-0.7,0-1.3,0-2.2c-0.4,0.2-0.6,0.3-0.8,0.4c-1.9,1.9-3.8,3.8-5.6,5.8c-0.9,1-1.5,2.1-2.3,3.2c-0.3,0.5-1.7,0.6-2.1,0.2
		c-0.1-0.1-0.1-0.5,0-0.7c1.1-1.6,2.2-3.3,3.4-4.9c2-2.6,4.4-5,7-7c1.7-1.3,3.6-2.4,5.5-3.5C26.3,37.1,26.6,43.9,27.5,50.9z"/>
        <path class="st1" d="M70.4,74.5c-2.1,0.2-4,0.4-5.9,0.6c1.8-5.3,2-10.6,1-16c1.6-0.7,3.1-1.3,4.8-2.1c0.2,1.1,0.5,1.9,0.5,2.8
		c0,3.3-0.1,6.6-0.2,9.9C70.5,71.3,70.5,72.9,70.4,74.5z"/>
        <path class="st1" d="M27.1,26.2c0.2,1.7-1.2,3.7-3.6,3.8c-1.8,0.1-3.7-1.7-3.8-3.6c-0.1-2,1.5-3.8,3.6-3.9
		C25.1,22.5,27.1,23.9,27.1,26.2z"/>
        <path class="st1" d="M64.1,52.4c0.1-2.1,1.6-3.6,3.7-3.6c2,0.1,3.6,1.8,3.5,3.7c-0.1,2.3-1.7,3.6-3.7,3.6
		C65.6,56.1,64,54.5,64.1,52.4z"/>
        <path class="st1" d="M87.9,51.8c-1-5.9-3.6-11-7.6-15.5c-2.1-2.3-4.4-4.2-7-5.9c-3.5-2.3-7.2-4.1-11.1-5.3c-1-0.3-2.1-0.2-3.1,0.2
		c-2.9,1.3-4.3,3.7-5.2,6.5c-0.8,2.6-1.2,5.2-0.8,7.9c0.5,3.3,1.4,6.5,4.1,8.7c1.4,1.2,3,1.7,4.9,1.1c2.7-0.8,4.1-2.9,5.1-5.2
		c1.3-2.9,1.8-5.9,1.4-9.2c-0.2-1.9-0.7-3.7-1.4-5.5c-0.1-0.3-0.1-0.6-0.1-0.9c0.3,0.1,0.5,0.1,0.8,0.2c2.8,1.3,5.2,3.1,7.5,5.2
		c2.8,2.6,5.5,5.3,7.4,8.7c1.8,3.1,2.9,6.5,3.5,10c0.1,0.5,0,0.9-0.7,0.9c-1.9,0-3.8,0.1-5.7,0.2c-1.6,0.1-3.3,0.2-4.9,0.3
		c-0.2,0-0.4,0.3-0.5,0.4c-0.3,1.1-0.6,2.1-0.9,3.2c2.4-0.2,4.9-0.4,7.3-0.6c0.3,0,0.5,0.1,0.8,0.1c0,0.2,0,0.5-0.2,0.7
		c-2.8,3.8-5.7,7.6-8.6,11.3c-1.2,1.5-1.3,3.2-1.3,4.9c1.9-0.2,3.7-0.3,5.5-0.5c2.6-0.3,5.3-0.6,7.9-0.9c1.5-0.2,1.5-0.1,1.9-1.6
		C88.7,64.9,89,58.4,87.9,51.8z M63.3,43.6c-1.4,2-3.5,2-4.8-0.1c-1.3-2-1.6-4.3-1.5-6.7c0.1-1.2,0.3-2.4,0.6-3.5
		c0.5-1.6,1.2-3,3-3.6c0.8-0.3,1.5-0.1,2.1,0.5c1.1,1,1.7,2.4,2,3.8c0.2,1.1,0.3,2.3,0.5,3.5C65.1,39.7,64.6,41.8,63.3,43.6z
		 M84.8,69.3c-0.1,0.3-0.5,0.6-0.9,0.6c-1.5,0.2-3.1,0.4-4.7,0.6c-0.5-0.1-1.1-0.3-1.7-0.5c0.3-0.5,0.5-1.1,0.8-1.6
		c2.5-3.3,5-6.6,7.5-9.9c0.1-0.2,0.4-0.3,0.5-0.5c0.1,0.2,0.3,0.5,0.3,0.7C86.8,62.5,86,65.9,84.8,69.3z"/>
        <path class="st1" d="M63.7,67.3c-0.3-2.7-1.3-5-4.1-5.9c-0.2-0.1-0.3-0.3-0.5-0.4c0.1-0.2,0.3-0.3,0.4-0.5c0.6-0.4,1.3-0.7,1.8-1.2
		c1.7-1.5,1.7-6,0.4-7.4c-0.7-0.7-1.5-1.7-2.3-1.7c-3.5-0.2-7,0-10.7,0c0,3.1,0.1,6,0.1,9c0,3.1,0,6.1,0,9.2c0,2.5,0,5,0,7.5
		c0,0.8,0.3,1.1,1,1c2.8-0.2,5.7-0.3,8.5-0.6c2.2-0.2,3.7-1.6,4.7-3.6C63.9,70.8,63.9,69.1,63.7,67.3z M53.2,58.3
		c-0.1-1.6-0.1-3.2-0.1-4.7c0-0.2,0.3-0.6,0.5-0.6c0.5-0.1,1.1-0.1,1.7-0.2c0,0,0-0.1,0.1-0.1c0.9,0.3,1.9,0.4,2.7,0.9
		c1.5,0.8,1,3.8-0.6,4.7c-1.2,0.7-2.5,0.8-3.8,0.7C53.5,58.9,53.2,58.5,53.2,58.3z M55.4,73.1c-2,0.1-2,0.2-2-1.8c0-1.9,0-3.7,0-5.6
		c0-0.1,0-0.2,0-0.3c-0.1-1.5-0.1-1.5,1.5-1.5c0.8,0,1.5,0.1,2.2,0.3c2.3,0.6,3,1.6,2.9,3.9C60.2,71,58.2,73,55.4,73.1z"/>
</g>
</svg>
