<?xml version="1.0" encoding="utf-8"?>
<!-- Generator: Adobe Illustrator 28.3.0, SVG Export Plug-In . SVG Version: 6.00 Build 0)  -->
<svg version="1.1" id="logo" xmlns="http://www.w3.org/2000/svg" x="0px"
	 y="0px"
	 viewBox="0 0 100 100" style="enable-background:new 0 0 100 100;" xml:space="preserve">
<style type="text/css">
	.st0{fill-rule:evenodd;clip-rule:evenodd;fill:#FFD200;}
	.st1{fill:#FFFFFF;}
</style>
    <polyline id="polygon2231_00000065756653866891016210000016351765767483502232_" class="st0"
              points="100,100 0,100 0,0 100,0 "/>
    <g>
	<path class="st1" d="M83.4,68.6c-4-4.9-7.9-9.9-12.2-15.2c0.9-0.3,1.7-0.6,2.9-1.1c-0.5-2.1-1-4.3-1.8-7.8
		c-2.5,5.5-4.8,9.9-6.4,14.5c-1.4,3.8-3.5,5.2-7.6,4.8c-4.9-0.4-9.8-0.1-14.9-0.1c0-10.9,0-21.3,0-32c2.7,0,5.4,0,8.7,0
		c0,7.7,0,15.5,0,23.1c4.3,1.3,6.5,0.2,7.9-3.7c2.1-5.7,5.1-11.1,7.2-16.9c1.6-4.2,4.8-2.4,7.5-2.9c2.7-0.4,3.2,1.3,3.8,3.2
		c2,6.4,4,12.7,6.1,19.3c-1.3,0.3-2.4,0.6-3.9,0.9c1.1,4.4,2.2,8.8,3.3,13.2C83.8,68.3,83.6,68.4,83.4,68.6z"/>
        <path class="st1" d="M15.4,31.8c8.2,0,15.9,0,24,0c0,2.7,0,5.1,0,8.1c-4.9,0-9.7,0-14.9,0c-0.1,1.7-0.2,3-0.4,4.7
		c4.9,0,9.5,0,14.4,0c0,2.9,0,5.3,0,8.4c-4.6,0-9.3,0-14.3,0c0,3.8,0,7,0,10.5c-3.1,0-5.8,0-8.8,0C15.4,53,15.4,42.6,15.4,31.8z"/>
</g>
</svg>
