<?xml version="1.0" encoding="utf-8"?>
<!-- Generator: Adobe Illustrator 28.3.0, SVG Export Plug-In . SVG Version: 6.00 Build 0)  -->
<svg version="1.1" id="logo" xmlns="http://www.w3.org/2000/svg" x="0px"
	 y="0px"
	 viewBox="0 0 100 100" style="enable-background:new 0 0 100 100;" xml:space="preserve">
<style type="text/css">
	.st0{fill-rule:evenodd;clip-rule:evenodd;fill:#241B3F;}
	.st1{fill:#60FFFF;}
</style>
    <polygon id="polygon2231" class="st0" points="0,0 100,0 100,100 0,100 "/>
    <path class="st1" d="M29.9,30.9c-0.7,2.7-0.9,6.6-0.2,9.3c1.4,6.1,7.5,8.6,10.9,10.2l16.6,7.3c3.2,1.4,4.1,3.4,4.1,5.2
	c0,2-0.9,5.7-5,5.7H43.1c-0.9,0-5,0-5-6.8l0,0c0-1.6-1.4-3-3-3.2H31l0,0c-0.9,0-1.6,0.7-1.8,1.6l0,0c0,0.5,0,0.9,0,1.6V62
	c0,2.3,0.7,5,0.7,5.2c3.4,10.7,11.8,10.7,13.4,10.7c0.2,0,15.4,0,15.4,0c4.5,0,11.8-4.3,11.8-14.5c0-7.7-6.4-11.8-7-12
	c-2.3-1.4-19.3-8.6-20.2-9.1c-2.5-1.6-5-3-5-6.1c0-3.6,1.8-5,3.4-5h15.2c4.1,0,4.3,5.5,4.5,6.8l0,0c0,0.2,0,0.2,0,0.5s0,0.2,0,0
	c0.2,1.4,1.4,2.7,3,2.7c0,0,4.1,0,4.3,0c3.2,0,1.8-5.7,1.4-7.7c-0.5-2.3-3.6-11.4-12.9-11.4c0,0-15.2,0-15.4,0l0,0
	C34,22.1,30.8,28.2,29.9,30.9"/>
</svg>
