<?xml version="1.0" encoding="utf-8"?>
<!-- Generator: Adobe Illustrator 28.3.0, SVG Export Plug-In . SVG Version: 6.00 Build 0)  -->
<svg version="1.1" id="logo" xmlns="http://www.w3.org/2000/svg" x="0px"
	 y="0px"
	 viewBox="0 0 100 100" style="enable-background:new 0 0 100 100;" xml:space="preserve">
<style type="text/css">
	.st0{fill-rule:evenodd;clip-rule:evenodd;fill:#111D35;}
	.st1{fill:url(#SVGID_1_);}
	.st2{fill:url(#SVGID_00000073706388036931611060000002975403603656998030_);}
	.st3{fill:url(#SVGID_00000133511262367579669940000000992287010748549556_);}
	.st4{fill:url(#SVGID_00000163778276176213111180000005235952153134071437_);}
	.st5{fill:url(#SVGID_00000107582768428420418360000002887264720868812985_);}
	.st6{fill:url(#SVGID_00000063602429296878122350000017955276096932520381_);}
	.st7{fill:url(#SVGID_00000041997575820195963290000015336985458712609210_);}
</style>
    <polygon id="polygon2231" class="st0" points="0,0 100,0 100,100 0,100 "/>
    <g>
	<g>
		<g>
			<linearGradient id="SVGID_1_" gradientUnits="userSpaceOnUse" x1="18.9212" y1="31.6353" x2="57.2533"
                            y2="31.6353">
				<stop offset="0" style="stop-color:#38A536"/>
                <stop offset="0.1484" style="stop-color:#5FB129"/>
                <stop offset="0.3439" style="stop-color:#8BBF1B"/>
                <stop offset="0.5323" style="stop-color:#AECB0F"/>
                <stop offset="0.7092" style="stop-color:#C8D307"/>
                <stop offset="0.8699" style="stop-color:#D7D702"/>
                <stop offset="1" style="stop-color:#DCD900"/>
			</linearGradient>
            <path class="st1" d="M56.5,44.4c-8.2-0.1-16.6-1.8-21.5-5.1c-0.7-0.5-1.4-1-2-1.5c-0.8-0.7-1.6-1.4-2.3-2.2
				c-1.9-2.2-3.2-4.6-4.2-6.9c-0.5-1.2-0.8-2.4-1.1-3.5c-0.1-0.3-0.1-0.6-0.2-0.9c-0.1-0.5-0.2-1-0.3-1.5c0-0.2-0.1-0.4-0.1-0.5
				c0,0-0.1-0.7-0.1-1c0-0.8,0.1-1.6,0.4-2.3c0.4-1.1,1.1-2.2,2-2.9c0.4-0.4,0.9-0.7,1.3-0.9c0.8-0.4,1.7-0.7,2.6-0.8
				c0,0-0.1,0-0.1,0c0,0,0,0,0,0c-1.8-0.4-3.7-0.7-5.7-0.9c-0.1,0-0.3,0-0.4,0c-0.1,0-0.2,0-0.4,0c-3,0-7.4,2.2-4.8,11.9
				c0.2,0.9,0.4,1.8,0.7,2.8c0.1,0.2,0.1,0.5,0.2,0.7c0.9,3,2.4,6.2,4.7,9.1c0.4,0.5,0.7,0.9,1.1,1.4c0,0,0.1,0.1,0.1,0.1
				c6.1,6.8,17.4,10.4,29.9,10.6l0.8,0v-5.5L56.5,44.4z"/>
		</g>
	</g>
        <g>
		
			<linearGradient id="SVGID_00000111153852631142500390000005108327209456287158_"
                            gradientUnits="userSpaceOnUse" x1="29.0985" y1="62.8551" x2="57.2533" y2="62.8551">
			<stop offset="0" style="stop-color:#DADA00"/>
                <stop offset="1" style="stop-color:#F8AF39"/>
		</linearGradient>
            <path style="fill:url(#SVGID_00000111153852631142500390000005108327209456287158_);" d="M57.3,57v-5.3H44.6
			c-2.1,0-4.2,0.4-6.1,1.2c-1.9,0.8-3.5,1.9-4.9,3.3c-1.4,1.4-2.5,3.1-3.3,4.9c-0.2,0.4-0.3,0.8-0.4,1.2c-0.5,1.5-0.8,3.2-0.8,4.9
			c0,1.7,0.3,3.3,0.8,4.9c0.1,0.3,0.2,0.6,0.3,0.9c0,0.1,0.1,0.2,0.1,0.3c0.1,0.3,0.3,0.6,0.4,0.8c-0.4-1.3-0.6-2.6-0.6-4
			C30.1,62.9,36,57,43.2,57c0.1,0,0.3,0,0.4,0c0.3,0,0.7-0.1,1.1-0.1H57.3z"/>

            <linearGradient id="SVGID_00000072963237332584475080000000919380150458985625_"
                            gradientUnits="userSpaceOnUse" x1="30.1005" y1="69.8676" x2="57.2132" y2="69.8676">
			<stop offset="0" style="stop-color:#FFD800"/>
                <stop offset="1" style="stop-color:#E5441A"/>
		</linearGradient>
            <path style="fill:url(#SVGID_00000072963237332584475080000000919380150458985625_);" d="M54,77.4h-8.2h-1.2c-1.4,0-2.7-0.3-4-0.8
			c-1.2-0.5-2.3-1.3-3.3-2.2C37,74,36.6,73.5,36.3,73c-0.2-0.3-0.4-0.6-0.6-0.9c-0.2-0.3-0.4-0.6-0.5-0.9c-0.5-1.2-0.8-2.6-0.8-4
			c0-1.4,0.3-2.7,0.8-4c0.1-0.3,0.3-0.6,0.5-0.9c0.5-0.9,1-1.7,1.7-2.3c0.9-0.9,2-1.7,3.3-2.2c0.9-0.4,1.9-0.6,2.9-0.7
			c-0.1,0-0.3,0-0.4,0c-7.2,0-13.1,5.9-13.1,13.1c0,1.4,0.2,2.7,0.6,4c0.6,1.2,1.3,2.3,2.2,3.3c0.2,0.3,0.5,0.5,0.7,0.8
			c1.4,1.4,3.1,2.5,4.9,3.3c1.9,0.8,3.9,1.2,6.1,1.2h1.9h5c3,0,5.5-2.4,5.7-5.3H54z"/>
	</g>

        <linearGradient id="SVGID_00000026886099877427442110000012232679937011633828_" gradientUnits="userSpaceOnUse"
                        x1="63.7655" y1="79.6408" x2="65.306" y2="49.9796">
		<stop offset="0" style="stop-color:#F39815"/>
            <stop offset="0.1602" style="stop-color:#F19315"/>
            <stop offset="0.3424" style="stop-color:#EA8615"/>
            <stop offset="0.5354" style="stop-color:#DF6F16"/>
            <stop offset="0.7358" style="stop-color:#D04F17"/>
            <stop offset="0.9402" style="stop-color:#BC2618"/>
            <stop offset="1" style="stop-color:#B61918"/>
	</linearGradient>
        <path style="fill:url(#SVGID_00000026886099877427442110000012232679937011633828_);" d="M77.3,51.6h-4.5c-2.1,0-4.2,0.4-6.1,1.2
		c-1.9,0.8-3.5,1.9-4.9,3.3c-1.4,1.4-2.5,3.1-3.3,4.9c-0.2,0.4-0.3,0.8-0.4,1.2c-0.5,1.5-0.8,3.2-0.8,4.9v4.5v0.4V73v4.4h0
		c-0.2,3-2.7,5.3-5.7,5.3h5.7v0c2.8-0.1,5.1-2.3,5.3-5.1v-0.2v-0.6V73v-0.9v-4.9c0-0.3,0-0.6,0-0.9c0,0,0,0,0,0
		C62.6,58.2,69.2,51.6,77.3,51.6z"/>
        <g>
		
			<linearGradient id="SVGID_00000077326685763396577700000017006186762091913126_"
                            gradientUnits="userSpaceOnUse" x1="25.1845" y1="23.8331" x2="68.8186" y2="23.8331">
			<stop offset="0" style="stop-color:#378286"/>
                <stop offset="2.136081e-02" style="stop-color:#37858A"/>
                <stop offset="0.1999" style="stop-color:#3398AB"/>
                <stop offset="0.3843" style="stop-color:#30A8C5"/>
                <stop offset="0.5747" style="stop-color:#2FB2D7"/>
                <stop offset="0.7746" style="stop-color:#2DB9E1"/>
                <stop offset="1" style="stop-color:#2DBBE5"/>
		</linearGradient>
            <path style="fill:url(#SVGID_00000077326685763396577700000017006186762091913126_);" d="M58,32.9c4.6,0.7,7.4-0.5,10.8,0.5
			c-0.1,0-0.2-0.1-0.4-0.1c-0.1,0-0.1,0-0.2,0c-0.4-0.1-0.9-0.3-1.3-0.4c0,0-0.1,0-0.1,0c-0.5-0.1-1-0.2-1.5-0.3l0,0
			c-4.5-1.5-5.7-1.2-9.5-4.4c-4.7-3.9-9.5-8-13.9-10.1c-1.9-0.9-4-1.7-6.2-2.4c-0.1,0-0.3-0.1-0.4-0.1c-0.7-0.2-1.5-0.4-2.2-0.6
			c-0.4-0.1-0.7-0.2-1.1-0.3c-0.2,0-0.4-0.1-0.5-0.1c-0.1,0-0.3-0.1-0.4-0.1c-1.5,0.1-2.9,0.7-4,1.7c-0.9,0.8-1.6,1.8-2,2.9
			c0.6,0.1,1.3,0.2,1.9,0.3c1.1,0.2,2.1,0.4,3.1,0.6c0.1,0,0.2,0.1,0.3,0.1c2.3,0.5,4.4,1.2,6.3,2c0.5,0.2,1,0.4,1.5,0.6
			c0.1,0.1,0.2,0.1,0.4,0.2c1.7,0.8,3.3,1.6,4.8,2.6c1.5,1,2.9,2,4.2,3l0,0c0,0,0.6,0.6,1.7,1.4C48.3,28.8,52.5,32.1,58,32.9z"/>

            <linearGradient id="SVGID_00000034809865267053271520000012242566675574644913_"
                            gradientUnits="userSpaceOnUse" x1="49.0974" y1="39.7188" x2="81.0788" y2="39.7188">
			<stop offset="0" style="stop-color:#445FA7"/>
                <stop offset="1" style="stop-color:#59C2E4"/>
		</linearGradient>
            <path style="fill:url(#SVGID_00000034809865267053271520000012242566675574644913_);" d="M81,49.2c-0.2-2.2-0.9-6.2-3.6-9.8
			c-0.4-0.5-0.8-1-1.3-1.5c-0.1-0.1-0.2-0.2-0.3-0.3c-0.3-0.3-0.6-0.5-0.9-0.8l0,0c0,0,0,0-0.1,0c0,0-0.1-0.1-0.1-0.1
			c-0.1-0.1-0.2-0.2-0.3-0.2c-0.3-0.2-0.5-0.4-0.8-0.6c-0.1-0.1-0.2-0.1-0.3-0.2c-0.3-0.2-0.6-0.4-0.9-0.6c-0.1-0.1-0.3-0.1-0.4-0.2
			c-0.3-0.2-0.6-0.3-0.9-0.5c-0.1,0-0.2-0.1-0.3-0.1c-0.1,0-0.1-0.1-0.2-0.1c-0.3-0.1-0.6-0.3-0.9-0.4c0,0,0,0,0,0
			c-0.1,0-0.1,0-0.2-0.1c-0.3-0.1-0.6-0.2-0.8-0.3c-3.4-1-6.2,0.2-10.8-0.5c-5.4-0.8-9.7-4.1-8.7-3.3c0,0,0,0,0,0
			c1.4,1.2,3.8,2.8,4.1,3c5.4,3.7,10.5,4,15.5,6.8c1.1,0.6,2.2,1.3,3.1,2.1c1.2,1.1,2,2.4,2.5,3.7c0.5,1.2,0.8,2.3,0.9,3.3
			c0.1,0.5,0.2,1.1,0.3,1.6h5.5L81,49.2z"/>
	</g>
        <g>
		<g>
			
				<linearGradient id="SVGID_00000176020428346456719750000003324060475455003300_"
                                gradientUnits="userSpaceOnUse" x1="63.7285" y1="56.092" x2="77.3046" y2="60.9303">
				<stop offset="0" style="stop-color:#E94D7E"/>
                    <stop offset="0.1413" style="stop-color:#DF4A7E"/>
                    <stop offset="0.3843" style="stop-color:#C3427F"/>
                    <stop offset="0.6972" style="stop-color:#973580"/>
                    <stop offset="1" style="stop-color:#652782"/>
			</linearGradient>
            <path style="fill:url(#SVGID_00000176020428346456719750000003324060475455003300_);" d="M80.3,51.6h-3c-0.8,0-1.6,0.1-2.4,0.2
				c-7,1.1-12.3,7.2-12.3,14.5c0,0,0,0,0,0c0.1-1.1,0.3-2.1,0.8-3.1c0.1-0.3,0.3-0.6,0.5-0.9c0.5-0.9,1-1.7,1.7-2.3
				c0.9-0.9,2-1.7,3.3-2.2c1.2-0.5,2.6-0.8,4-0.8h4.7h0.4c1.7-0.1,3.1-1.5,3.1-3.3v-1.6v-0.5H80.3z"/>
		</g>
	</g>
</g>
</svg>
