<?xml version="1.0" encoding="utf-8"?>
<svg version="1.1" class="logo-stabilis" xmlns="http://www.w3.org/2000/svg"
     x="0px" y="0px" viewBox="0 0 260.3 24.5" style="enable-background:new 0 0 260.3 24.5;" xml:space="preserve">
<style type="text/css">
	.st0{enable-background:new    ;}
</style>
    <path d="M106.1,0c-0.3,0-0.7,0.4-0.7,0.8v22.9c0,0.4,0.3,0.8,0.7,0.8c0,0,11.3,0,11.5,0c1.2,0,5.9-1.1,5.9-7.1
	c0-4.1-2.9-5.2-2.9-5.2c0.8-0.9,2.3-2.6,2.3-5.2c0-4.3-2.7-7.1-6.7-7.1L106.1,0L106.1,0z M109.4,4h6.6c1.6,0,3.1,1.6,3.1,3.1
	c0,1.9-1.7,3.1-2.8,3.1h-6.9C109.4,10.2,109.4,4,109.4,4z M116.8,14.3c1.5,0,2.9,1.1,2.9,3.1c0,3.4-2.9,3.1-2.9,3.1s-7.1,0-7.4,0
	v-6.3c0.6,0,1.6,0,2.6,0C114.2,14.3,116.8,14.3,116.8,14.3 M227.1,3.9c-0.4,1.2-0.4,2.9-0.1,4.2c0.6,2.7,3.3,3.8,4.8,4.5l7.3,3.2
	c1.4,0.6,1.8,1.5,1.8,2.3c0,0.9-0.4,2.5-2.2,2.5h-5.8c-0.4,0-2.2,0-2.2-3l0,0c0-0.7-0.6-1.3-1.3-1.4h-1.8l0,0
	c-0.4,0-0.7,0.3-0.8,0.7l0,0c-0.3,0.9,0.2,2.9,0.2,3c1.5,4.7,5.2,4.7,5.9,4.7c0.1,0,6.8,0,6.8,0c2,0,5.2-1.9,5.2-6.4
	c0-3.4-2.8-5.2-3.1-5.3c-1-0.6-8.5-3.8-8.9-4c-1.1-0.5-2.2-1.2-2.2-2.5c0-1.6,0.8-2.3,1.6-2.3h6.7c1.8,0,1.9,2.4,2,3l0,0
	c0,0.1,0,0.1,0,0.2s0,0.1,0,0c0.1,0.6,0.6,1.2,1.3,1.2c0,0,1.8,0,1.9,0c0.7,0,0.9-0.6,0.9-1.3V6.9c0-0.7-0.2-1.5-0.3-2
	C244.5,4,243.2,0,239.1,0c0,0-6.7,0-6.8,0l0,0C228.8,0,227.4,2.7,227.1,3.9 M240.9,6.9L240.9,6.9z M0.3,3.9C0,5.1-0.1,6.8,0.2,8
	c0.6,2.7,3.3,3.8,4.8,4.5l7.3,3.2c1.4,0.6,1.8,1.5,1.8,2.3c0,0.9-0.4,2.5-2.2,2.5H6.1c-0.4,0-2.2,0-2.2-3l0,0c0-0.7-0.6-1.3-1.3-1.4
	H0.8l0,0c-0.4,0-0.7,0.3-0.8,0.7l0,0c0,0.2,0,0.4,0,0.7v0.1c0,1,0.3,2.2,0.3,2.3c1.5,4.7,5.2,4.7,5.9,4.7c0.1,0,6.8,0,6.8,0
	c2,0,5.2-1.9,5.2-6.4c0-3.4-2.8-5.2-3.1-5.3c-1-0.6-8.5-3.8-8.9-4C5.1,8.2,4,7.6,4,6.2C4,4.6,4.8,4,5.5,4h6.7c1.8,0,1.9,2.4,2,3l0,0
	c0,0.1,0,0.1,0,0.2s0,0.1,0,0c0.1,0.6,0.6,1.2,1.3,1.2c0,0,1.8,0,1.9,0c1.4,0,0.8-2.5,0.6-3.4c-0.2-1-1.6-5-5.7-5c0,0-6.7,0-6.8,0
	l0,0C2.1,0,0.7,2.7,0.3,3.9 M14.2,6.9L14.2,6.9z M203,0c-0.4,0-0.8,0.4-0.8,0.8v22.9c0,0.4,0.3,0.8,0.8,0.8h2.3
	c0.4,0,0.8-0.4,0.8-0.8V0.8c0-0.5-0.4-0.8-0.8-0.8C205.4,0,203,0,203,0 M170,0c-0.4,0-0.8,0.4-0.8,0.8v22.9c0,0.4,0.3,0.8,0.7,0.8
	c0,0,0,0,0.1,0c0.8,0,8.2,0,12.9,0l0,0c0.4,0,0.8-0.4,0.8-0.8v-2.3c0-0.5-0.4-0.8-0.8-0.8H173V0.8c0-0.5-0.4-0.8-0.8-0.8
	C172.4,0,170,0,170,0 M144,0c-0.4,0-0.8,0.4-0.8,0.8v22.9c0,0.4,0.3,0.8,0.8,0.8h2.3c0.4,0,0.8-0.4,0.8-0.8V0.8
	c0-0.5-0.4-0.8-0.8-0.8H144 M75.4,0c-0.4,0-0.7,0.3-0.8,0.6c-0.1,0.5-1.4,3.7-1.6,4.3c-0.3,0.9,0,1.3,0.6,1.3h1.8
	c1,0,1.1,0.3,1.5,1.3c0.1,0.2,6,16.3,6,16.3c0.1,0.3,0.4,0.6,0.7,0.6h2.5c0.5,0,0.9-0.5,0.7-1.1L78.5,0.5C78.4,0.3,78.1,0,77.7,0
	H75.4z M51.1,0c-4.7,0-15.7,0-16.5,0h-0.1c-0.4,0-0.7,0.4-0.7,0.8v2.3c0,0.5,0.4,0.8,0.8,0.8H41c0,6.2,0,19.7,0,19.7
	c0,0.4,0.3,0.8,0.8,0.8h2.3c0.4,0,0.8-0.4,0.8-0.8V3.9h6.3c0.4,0,0.8-0.4,0.8-0.8V0.8C51.9,0.3,51.5,0,51.1,0L51.1,0 M71.1,10.3
	c-0.1,0.3-4.7,12.9-4.8,13.2c-0.2,0.5,0.2,1.1,0.7,1.1h2.5c0.4,0,0.6-0.1,0.7-0.5c0,0,2.3-6.2,3.1-8.5c0.1-0.2,0.5-1,0.2-1.7
	l-1.3-3.5c-0.1-0.3-0.4-0.5-0.6-0.5C71.4,9.8,71.2,10,71.1,10.3"></path>
    <g>
	<path d="M256.1-0.1c-2.3,0-4.3,1.9-4.3,4.3s1.9,4.3,4.3,4.3c2.3,0,4.3-1.9,4.3-4.3S258.3-0.1,256.1-0.1z M256.1,7.8
		c-2,0-3.7-1.6-3.7-3.7s1.6-3.7,3.7-3.7c2,0,3.7,1.6,3.7,3.7S258,7.8,256.1,7.8z"></path>
</g>
    <g class="st0">
	<path d="M254.5,6.3V2h1.8c0.4,0,0.6,0,0.8,0.1c0.2,0.1,0.3,0.2,0.5,0.4c0.1,0.2,0.2,0.4,0.2,0.7c0,0.3-0.1,0.6-0.3,0.8
		c-0.2,0.2-0.5,0.3-0.9,0.4c0.1,0.1,0.3,0.1,0.3,0.2c0.2,0.2,0.3,0.3,0.4,0.6l0.7,1.2h-0.7l-0.5-0.9c-0.2-0.3-0.3-0.5-0.4-0.6
		c-0.1-0.1-0.2-0.2-0.3-0.3c-0.1-0.1-0.2-0.1-0.2-0.1c-0.1,0-0.2,0-0.3,0h-0.6v1.9H254.5z M255.1,3.9h1.2c0.2,0,0.4,0,0.6-0.1
		c0.1-0.1,0.2-0.1,0.3-0.3c0.1-0.1,0.1-0.2,0.1-0.4c0-0.2-0.1-0.4-0.2-0.5s-0.4-0.2-0.7-0.2h-1.3V3.9z"></path>
</g>
</svg>
